#!OML:ASF H:\Dans Jumps\Project 1\Capture day 1\Session 1\subject.ASF
:FULLY-SPECIFIED
:DEGREES
514
root 0.344304 17.4431 -6.88047 12.8021 -0.00777909 -1.94636
lowerback 8.54445 1.05114 0.032391
upperback 5.60738 1.39162 1.61877
thorax 0.974297 0.668694 1.54589
lowerneck -13.9261 -0.618722 -1.12495
upperneck 27.7435 -0.96394 1.34721
head 11.314 -0.379155 0.555908
rclavicle 3.18055e-015 9.14409e-015
rhumerus -33.757 8.68027 -86.0314
rradius 90.6725
rwrist 9.46179
rhand -33.3407 -28.9578
rfingers 7.12502
rthumb -6.54314 -58.8368
lclavicle 3.18055e-015 9.14409e-015
lhumerus -46.164 -16.2711 89.0195
lradius 96.0603
lwrist 41.7017
lhand -33.536 -18.1684
lfingers 7.12502
lthumb -6.73162 11.7046
rfemur -31.2026 -2.43374 19.8814
rtibia 33.1375
rfoot -14.2576 1.26819
rtoes 12.0265
lfemur -30.6672 6.51859 -18.4377
ltibia 32.5236
lfoot -11.737 5.89947
ltoes 3.59667
515
root 0.342888 17.4265 -6.88209 12.653 -0.158859 -1.84988
lowerback 8.66922 1.06382 -0.13726
upperback 5.65733 1.39688 1.55593
thorax 0.955225 0.667762 1.57425
lowerneck -13.9432 -0.584118 -1.12236
upperneck 27.6104 -0.928431 1.39472
head 11.2663 -0.357657 0.576993
rclavicle 8.54774e-015 -3.77691e-015
rhumerus -33.5581 8.40513 -85.9232
rradius 90.3357
rwrist 9.55013
rhand -33.2997 -29.1416
rfingers 7.12502
rthumb -6.50358 -59.0217
lclavicle 8.54774e-015 -3.77691e-015
lhumerus -45.8956 -16.0586 88.9213
lradius 95.5608
lwrist 41.1289
lhand -33.5903 -18.1579
lfingers 7.12502
lthumb -6.78408 11.7134
rfemur -31.2777 -2.30414 19.7588
rtibia 33.5311
rfoot -14.3476 1.22146
rtoes 11.9974
lfemur -30.6823 6.32924 -18.4845
ltibia 32.9164
lfoot -11.8298 6.25832
ltoes 3.7181
516
root 0.340648 17.4114 -6.88138 12.5418 -0.247967 -1.78578
lowerback 8.7261 1.06116 -0.263198
upperback 5.70967 1.38428 1.51256
thorax 0.976996 0.658551 1.60085
lowerneck -13.9872 -0.555715 -1.1326
upperneck 27.5211 -0.897712 1.43976
head 11.2408 -0.3397 0.598856
rclavicle 1.53064e-014 6.55989e-015
rhumerus -33.3733 8.08483 -85.8299
rradius 90.0296
rwrist 9.51373
rhand -33.2452 -29.2894
rfingers 7.12502
rthumb -6.45093 -59.1711
lclavicle 1.53064e-014 6.55989e-015
lhumerus -45.5784 -15.8479 88.8451
lradius 94.9965
lwrist 40.5799
lhand -33.646 -18.1578
lfingers 7.12502
lthumb -6.83788 11.7118
rfemur -31.3496 -2.17653 19.6802
rtibia 33.8749
rfoot -14.4399 1.10709
rtoes 11.9332
lfemur -30.718 6.1678 -18.5016
ltibia 33.2606
lfoot -11.9293 6.53317
ltoes 3.75666
517
root 0.338192 17.3985 -6.87853 12.4664 -0.278531 -1.78066
lowerback 8.72187 1.04493 -0.31396
upperback 5.75964 1.35875 1.49482
thorax 1.03134 0.644265 1.61379
lowerneck -14.0572 -0.533494 -1.15201
upperneck 27.4911 -0.871459 1.47732
head 11.2433 -0.325334 0.619221
rclavicle 1.2424e-014 8.54774e-015
rhumerus -33.2111 7.73032 -85.7511
rradius 89.7508
rwrist 9.35959
rhand -33.1969 -29.3962
rfingers 7.12502
rthumb -6.40433 -59.2794
lclavicle 1.2424e-014 8.54774e-015
lhumerus -45.2167 -15.6481 88.7957
lradius 94.3679
lwrist 40.0647
lhand -33.7083 -18.1771
lfingers 7.12502
lthumb -6.89798 11.6905
rfemur -31.4064 -2.04916 19.6707
rtibia 34.149
rfoot -14.5208 0.945898
rtoes 11.9061
lfemur -30.7708 6.0417 -18.4643
ltibia 33.5521
lfoot -12.027 6.73953
ltoes 3.71209
518
root 0.336236 17.3881 -6.87402 12.4226 -0.259879 -1.8409
lowerback 8.66644 1.01796 -0.28033
upperback 5.80267 1.3247 1.50373
thorax 1.10805 0.627457 1.6083
lowerneck -14.1354 -0.518181 -1.18019
upperneck 27.5189 -0.850047 1.50434
head 11.2695 -0.315138 0.636912
rclavicle -1.05356e-014 -7.95139e-015
rhumerus -33.0695 7.3513 -85.6844
rradius 89.4855
rwrist 9.11935
rhand -33.1613 -29.465
rfingers 7.12502
rthumb -6.36989 -59.3492
lclavicle -1.05356e-014 -7.95139e-015
lhumerus -44.815 -15.4655 88.7765
lradius 93.6737
lwrist 39.5769
lhand -33.7857 -18.2249
lfingers 7.12502
lthumb -6.97268 11.6403
rfemur -31.4406 -1.93168 19.7358
rtibia 34.3397
rfoot -14.5779 0.761957
rtoes 11.8835
lfemur -30.8354 5.94724 -18.3677
ltibia 33.7926
lfoot -12.1185 6.89363
ltoes 3.62005
519
root 0.335297 17.3807 -6.86838 12.4029 -0.213893 -1.95531
lowerback 8.57921 0.987411 -0.175915
upperback 5.83266 1.29052 1.53349
thorax 1.18966 0.612238 1.58489
lowerneck -14.2155 -0.508441 -1.20802
upperneck 27.6063 -0.831832 1.51316
head 11.3189 -0.308425 0.647822
rclavicle -2.45499e-014 -1.64991e-014
rhumerus -32.956 6.95756 -85.6279
rradius 89.2239
rwrist 8.83625
rhand -33.1359 -29.4995
rfingers 7.12502
rthumb -6.34546 -59.3845
lclavicle -2.45499e-014 -1.64991e-014
lhumerus -44.3921 -15.3027 88.7882
lradius 92.9277
lwrist 39.1018
lhand -33.8867 -18.2883
lfingers 7.12502
lthumb -7.0702 11.5736
rfemur -31.4476 -1.83246 19.8615
rtibia 34.4431
rfoot -14.6041 0.586122
rtoes 11.8681
lfemur -30.9007 5.89018 -18.2271
ltibia 33.9823
lfoot -12.202 7.00701
ltoes 3.51909
520
root 0.335621 17.3764 -6.86225 12.3968 -0.155951 -2.09469
lowerback 8.48328 0.955862 -0.0311365
upperback 5.84563 1.25747 1.57356
thorax 1.25887 0.598732 1.54922
lowerneck -14.2828 -0.501008 -1.23134
upperneck 27.744 -0.812638 1.50149
head 11.3849 -0.303293 0.650913
rclavicle -8.34896e-015 -2.78299e-015
rhumerus -32.8784 6.56009 -85.5818
rradius 88.9638
rwrist 8.56216
rhand -33.1211 -29.4906
rfingers 7.12502
rthumb -6.3311 -59.376
lclavicle -8.34896e-015 -2.78299e-015
lhumerus -43.9658 -15.1553 88.8271
lradius 92.1428
lwrist 38.6182
lhand -34.001 -18.3609
lfingers 7.12502
lthumb -7.1805 11.4973
rfemur -31.4243 -1.76104 20.0143
rtibia 34.4649
rfoot -14.5987 0.442921
rtoes 11.8456
lfemur -30.9491 5.86231 -18.0722
ltibia 34.114
lfoot -12.2762 7.08535
ltoes 3.43863
521
root 0.3371 17.3752 -6.85597 12.3957 -0.112856 -2.23056
lowerback 8.39825 0.930038 0.116708
upperback 5.84115 1.23211 1.61251
thorax 1.30378 0.589384 1.50962
lowerneck -14.3254 -0.494112 -1.24957
upperneck 27.9084 -0.791754 1.47555
head 11.4564 -0.298732 0.648302
rclavicle -1.58034e-014 -2.38542e-014
rhumerus -32.8362 6.17119 -85.548
rradius 88.6991
rwrist 8.34366
rhand -33.111 -29.4785
rfingers 7.12502
rthumb -6.32133 -59.3642
lclavicle -1.58034e-014 -2.38542e-014
lhumerus -43.5579 -15.0175 88.8855
lradius 91.3439
lwrist 38.1036
lhand -34.1161 -18.4535
lfingers 7.12502
lthumb -7.29166 11.4009
rfemur -31.3725 -1.7108 20.1603
rtibia 34.418
rfoot -14.5654 0.352459
rtoes 11.8409
lfemur -30.9649 5.86952 -17.9327
ltibia 34.1808
lfoot -12.3357 7.13041
ltoes 3.40117
522
root 0.339549 17.3774 -6.84895 12.3989 -0.0985513 -2.32603
lowerback 8.32479 0.91203 0.229128
upperback 5.82012 1.21493 1.63623
thorax 1.32447 0.583544 1.47316
lowerneck -14.3315 -0.481513 -1.23232
upperneck 28.0801 -0.762138 1.41397
head 11.523 -0.291136 0.627711
rclavicle 8.54774e-015 7.55382e-015
rhumerus -32.8312 5.79533 -85.5276
rradius 88.4303
rwrist 8.22518
rhand -33.0975 -29.4322
rfingers 7.12502
rthumb -6.30832 -59.3183
lclavicle 8.54774e-015 7.55382e-015
lhumerus -43.1829 -14.8858 88.9527
lradius 90.551
lwrist 37.5436
lhand -34.2424 -18.5348
lfingers 7.12502
lthumb -7.41353 11.3153
rfemur -31.2993 -1.68916 20.2595
rtibia 34.318
rfoot -14.5147 0.325322
rtoes 11.8258
lfemur -30.9379 5.90792 -17.848
ltibia 34.1729
lfoot -12.3768 7.14172
ltoes 3.40918
523
root 0.34247 17.3822 -6.8427 12.4143 -0.103063 -2.37613
lowerback 8.26683 0.895559 0.300052
upperback 5.78351 1.19749 1.64128
thorax 1.31995 0.576841 1.44026
lowerneck -14.3232 -0.464424 -1.1981
upperneck 28.2465 -0.7272 1.34061
head 11.5848 -0.280964 0.600496
rclavicle 4.96962e-015 1.78906e-015
rhumerus -32.8482 5.44538 -85.5272
rradius 88.1507
rwrist 8.21682
rhand -33.0912 -29.3621
rfingers 7.12502
rthumb -6.30225 -59.2483
lclavicle 4.96962e-015 1.78906e-015
lhumerus -42.8461 -14.7485 89.0153
lradius 89.7841
lwrist 36.9324
lhand -34.3362 -18.6038
lfingers 7.12502
lthumb -7.50406 11.2431
rfemur -31.2239 -1.6916 20.3071
rtibia 34.1791
rfoot -14.4481 0.352964
rtoes 11.8578
lfemur -30.8854 5.96561 -17.8192
ltibia 34.0888
lfoot -12.3865 7.11419
ltoes 3.44743
524
root 0.345442 17.3896 -6.83689 12.4451 -0.120959 -2.37781
lowerback 8.21368 0.877857 0.323774
upperback 5.73708 1.17569 1.62692
thorax 1.30211 0.56703 1.41391
lowerneck -14.3069 -0.441665 -1.15195
upperneck 28.3927 -0.686398 1.26455
head 11.6372 -0.267362 0.570862
rclavicle 3.97569e-016 -8.54774e-015
rhumerus -32.8797 5.12718 -85.5477
rradius 87.8679
rwrist 8.31176
rhand -33.0955 -29.2683
rfingers 7.12502
rthumb -6.30643 -59.1544
lclavicle 3.97569e-016 -8.54774e-015
lhumerus -42.555 -14.5983 89.0679
lradius 89.0636
lwrist 36.273
lhand -34.3994 -18.6454
lfingers 7.12502
lthumb -7.56507 11.1993
rfemur -31.1529 -1.71715 20.3021
rtibia 34.0109
rfoot -14.3726 0.421179
rtoes 11.926
lfemur -30.8139 6.03785 -17.848
ltibia 33.9312
lfoot -12.3613 7.04642
ltoes 3.5101
